<svg id="_9c167f13-7fe2-4e7b-a8cb-8bb79342b68a" data-name="9c167f13-7fe2-4e7b-a8cb-8bb79342b68a" xmlns="http://www.w3.org/2000/svg" xmlns:xlink="http://www.w3.org/1999/xlink" viewBox="0 0 951.8 610.17"><defs><style>.cls-1,.cls-11,.cls-12{opacity:0.5;}.cls-1,.cls-11,.cls-12,.cls-19,.cls-27,.cls-3,.cls-4{isolation:isolate;}.cls-1{fill:url(#linear-gradient);}.cls-11,.cls-2,.cls-3{fill:#3db2ff;}.cls-3,.cls-4{opacity:0.6;}.cls-19,.cls-4{fill:none;stroke-miterlimit:10;}.cls-4{stroke:#535461;}.cls-5{fill:url(#linear-gradient-2);}.cls-6{fill:#fff;}.cls-7{fill:#eee;}.cls-8{fill:#ff5252;}.cls-9{fill:#ff0;}.cls-10{fill:#69f0ae;}.cls-12{fill:url(#linear-gradient-3);}.cls-13{fill:#fdb797;}.cls-14{opacity:0.05;}.cls-15{fill:#f9ce43;}.cls-16{fill:#0d134d;}.cls-17,.cls-19,.cls-27{opacity:0.1;}.cls-18{fill:#e23553;}.cls-19{stroke:#000;}.cls-20{fill:#1d78aa;}.cls-21{fill:#f4f4f4;}.cls-22{fill:url(#linear-gradient-4);}.cls-23{fill:#72351c;}.cls-24{fill:#333;}.cls-25{fill:#4d8af0;}.cls-26{fill:#f55f44;}.cls-28{fill:#f0e4e4;}</style><linearGradient id="linear-gradient" x1="572.92" y1="-145.81" x2="572.92" y2="83.97" gradientTransform="matrix(1, 0, 0, -1, -124.06, 464.36)" gradientUnits="userSpaceOnUse"><stop offset="0" stop-color="gray" stop-opacity="0.25"/><stop offset="0.54" stop-color="gray" stop-opacity="0.12"/><stop offset="1" stop-color="gray" stop-opacity="0.1"/></linearGradient><linearGradient id="linear-gradient-2" x1="438.38" y1="114.08" x2="438.38" y2="609.28" gradientTransform="matrix(1, 0, 0, -1, 0, 609.28)" xlink:href="#linear-gradient"/><linearGradient id="linear-gradient-3" x1="976.16" y1="-99.79" x2="976.16" y2="304.1" xlink:href="#linear-gradient"/><linearGradient id="linear-gradient-4" x1="687.76" y1="131.73" x2="687.76" y2="187.07" xlink:href="#linear-gradient"/></defs><path class="cls-1" d="M894.3,522.25c-1.72-7.1-7.37-12.45-11.53-18.46a50,50,0,0,1-3.07-50.73c4-7.61,10.27-15.48,8-23.79-1.52-5.59-6.57-9.42-11.53-12.42a112.8,112.8,0,0,0-62.57-16.09c-26.94,1.1-53.79,11.86-80.21,6.53-25.73-5.21-47.53-18.11-74.45-19.64-20.11-1.14-40,.14-60.15-2.06A891.74,891.74,0,0,0,448.86,382a891.6,891.6,0,0,0-149.92,3.58c-20.1,2.2-40,.92-60.15,2.06-27,1.52-48.75,14.44-74.49,19.64-26.43,5.34-53.27-5.43-80.21-6.53a112.8,112.8,0,0,0-62.57,16.09c-5,3-10,6.83-11.53,12.42-2.26,8.3,4,16.17,8,23.79a50,50,0,0,1-3,50.73c-4.16,6-9.81,11.36-11.53,18.46-3.46,14.28,10.42,26.86,24,32.53,37.05,15.49,82.11,8,116,29.57,15.19,9.68,28.48,25.22,46.48,25.8,12.17.39,23.24-6.37,33.87-12.32a324.15,324.15,0,0,1,49.71-22.57c15-5.34,30.89-9.62,46.72-7.85,24.17,2.67,128.65,53.15,175.75,23.32,32.26-20.45,57.42-20.62,81.65-23.33,15.83-1.77,31.71,2.51,46.72,7.85A324.15,324.15,0,0,1,674,597.82c10.62,5.95,21.7,12.71,33.87,12.32,18-.58,31.29-16.12,46.48-25.8,33.87-21.58,78.92-14.08,116-29.57C883.88,549.08,897.77,536.54,894.3,522.25Z" transform="translate(0 0)"/><path class="cls-2" d="M889.4,522c-1.7-7-7.29-12.32-11.4-18.26a49.48,49.48,0,0,1-3-50.17c4-7.53,10.16-15.31,7.92-23.52-1.51-5.53-6.5-9.32-11.4-12.28a111.6,111.6,0,0,0-61.88-15.92c-26.64,1.08-53.19,11.73-79.33,6.45-25.46-5.14-47-17.92-73.67-19.43-19.89-1.12-39.6.14-59.48-2a881.64,881.64,0,0,0-148.28-3.54,881.64,881.64,0,0,0-148.28,3.54c-19.88,2.18-39.59.91-59.48,2-26.66,1.5-48.21,14.28-73.67,19.43-26.13,5.28-52.69-5.37-79.33-6.45a111.6,111.6,0,0,0-61.88,15.92c-4.9,3-9.89,6.75-11.4,12.28-2.24,8.21,4,16,7.92,23.52a49.48,49.48,0,0,1-3,50.17c-4.12,5.94-9.7,11.23-11.4,18.26C4.85,536.08,18.58,548.52,32,554.08c36.65,15.31,81.21,7.9,114.7,29.24,15,9.57,28.17,24.95,46,25.52,12,.39,23-6.3,33.5-12.19a321,321,0,0,1,49.17-22.33c14.85-5.29,30.55-9.52,46.21-7.77,24,2.68,127.3,52.57,173.84,23.07,31.91-20.22,56.79-20.39,80.75-23.07,15.66-1.75,31.37,2.48,46.21,7.77a321,321,0,0,1,49.17,22.33c10.51,5.88,21.46,12.57,33.5,12.19,17.8-.57,31-15.94,46-25.52,33.5-21.34,78.06-13.93,114.7-29.24C879.1,548.52,892.83,536.08,889.4,522Z" transform="translate(0 0)"/><path class="cls-3" d="M34.94,219.22c2.86-1,5.9-1.95,8.89-1.43,5,.87,8.51,5.61,10,10.48s1.44,10,2.39,15,3.22,10.17,7.7,12.56,9.77,1.45,14.74.87a93.34,93.34,0,0,1,19.63-.18c5.48.53,11.92,2.38,13.53,7.65,1.32,4.3-1.3,8.69-3,12.84-3.26,7.76-3.52,16.93.21,24.47s11.29,13.16,14.45,21.12a10.42,10.42,0,0,1,.76,6.37,11.69,11.69,0,0,1-2.26,4.1c-2.48,3.19-5.44,6-7.7,9.36-4.71,7-6,15.7-6.54,24.11a175.87,175.87,0,0,0,.14,24.83c-6.14-2-12.92-.22-19.25-1.53-13.47-2.78-21.88-18.72-35.6-19.69-6.49-.46-13.47,2.6-19.26-.37a14.49,14.49,0,0,1-6.16-7A24.8,24.8,0,0,1,26,346.08c1-3.86,3-7.64,2.61-11.61-.33-3.4-2.37-6.4-4.71-8.89C17.26,318.5,7.58,314.17,2.79,305.7a22.65,22.65,0,0,1,2.69-25.49,67.12,67.12,0,0,0,4.85-5.27c2.3-3.24,3-7.33,3.31-11.3.66-9.51-1-19.58,2.11-28.82C18.54,226.46,27.06,222,34.94,219.22Z" transform="translate(0 0)"/><path class="cls-4" d="M35.08,219.5S62.39,371.17,97.85,389.26" transform="translate(0 0)"/><path class="cls-4" d="M111.06,261.48s-29.25,4-58.47,34" transform="translate(0 0)"/><path class="cls-4" d="M57.73,313.15s-22.51-22-57.68-18.27" transform="translate(0 0)"/><path class="cls-4" d="M123.94,322.72S82.86,326.21,67.65,342" transform="translate(0 0)"/><path class="cls-4" d="M73.8,356.67s-23-4-44.23,9.55" transform="translate(0 0)"/><path class="cls-3" d="M880.43,100.08c-4.59-1.63-9.46-3.12-14.25-2.29-8,1.4-13.64,9-16,16.79s-2.31,16.1-3.83,24.1S841.19,155,834,158.81s-15.66,2.32-23.63,1.4a148.85,148.85,0,0,0-31.44-.33c-8.79.85-19.1,3.82-21.68,12.26-2.11,6.9,2.08,13.92,4.88,20.57,5.23,12.43,5.65,27.14-.34,39.23-6.09,12.3-18.1,21.1-23.16,33.85-1.28,3.24-2.09,6.83-1.22,10.2a18.63,18.63,0,0,0,3.63,6.58c4,5.12,8.72,9.63,12.34,15,7.55,11.2,9.6,25.16,10.48,38.64a282.57,282.57,0,0,1-.22,39.79c9.84-3.24,20.72-.35,30.86-2.44,21.59-4.45,35.07-30,57.06-31.56,10.4-.73,21.59,4.16,30.87-.6,4.52-2.32,7.73-6.65,9.88-11.26a39.83,39.83,0,0,0,2.39-26.7c-1.63-6.19-4.8-12.24-4.18-18.61.53-5.45,3.79-10.26,7.55-14.24,10.69-11.35,26.21-18.29,33.89-31.86,7.2-12.72,5.38-29.93-4.31-40.86-2.54-2.87-5.56-5.33-7.78-8.45-3.69-5.19-4.87-11.75-5.31-18.11-1.05-15.25,1.54-31.38-3.39-46.19C906.68,111.64,893,104.51,880.43,100.08Z" transform="translate(0 0)"/><path class="cls-4" d="M880.17,100.48S836.4,343.59,779.55,372.58" transform="translate(0 0)"/><path class="cls-4" d="M758.38,167.77s46.88,6.44,93.72,54.59" transform="translate(0 0)"/><path class="cls-4" d="M843.86,250.59S880,215.3,936.31,221.3" transform="translate(0 0)"/><path class="cls-4" d="M737.79,265.93s65.84,5.59,90.22,30.88" transform="translate(0 0)"/><path class="cls-4" d="M818.11,320.35s36.89-6.46,70.9,15.3" transform="translate(0 0)"/><polygon class="cls-5" points="74.91 0 74.91 24.99 74.91 495.2 801.84 495.2 801.84 24.99 801.84 0 74.91 0"/><rect class="cls-6" x="85.69" y="22.47" width="708.45" height="463.77"/><rect class="cls-7" x="85.69" y="0.41" width="708.45" height="34.12"/><circle class="cls-8" cx="112.65" cy="16.95" r="8.27"/><circle class="cls-9" cx="135.4" cy="16.95" r="8.27"/><circle class="cls-10" cx="158.15" cy="16.95" r="8.27"/><rect class="cls-11" x="112.84" y="89.18" width="264" height="11"/><rect class="cls-11" x="112.84" y="111.18" width="264" height="11"/><rect class="cls-11" x="112.84" y="133.18" width="264" height="11"/><rect class="cls-11" x="203.84" y="155.18" width="173" height="11"/><rect class="cls-11" x="112.84" y="177.18" width="139" height="11"/><rect class="cls-11" x="187.84" y="199.18" width="107" height="11"/><rect class="cls-11" x="411.84" y="166.18" width="311" height="179"/><rect class="cls-7" x="448.84" y="183.18" width="311" height="179"/><path class="cls-12" d="M946.82,348.32a4.67,4.67,0,0,0,1-2.89v-.08s.06-.21.09-.31v-.54a2.16,2.16,0,0,0,0-.36c-.59-4-24.36-30.06-30.3-61.85a56.7,56.7,0,0,0-2.93-10.13,14.17,14.17,0,0,0-.32-4.9c-1-4.07-3-8.2-2-12.26a9.52,9.52,0,0,1,.55-1.55,59.62,59.62,0,0,0,3.43-5.69,13.83,13.83,0,0,0,1-2c3.65-9.62-7.65-19.55-5.57-29.59.9-4.35,4.27-8.15,4.18-12.58-.11-5.07-4.77-9-9.61-10.88s-10.17-2.42-14.92-4.52c-10.41-4.61-16.11-15.74-25.61-21.93-12.07-7.85-27.82-6.45-42.29-4.42a2.93,2.93,0,0,0-2.22,1.64h-.14c-.11.32-.24.63-.38.94-2,3.41-5.37,6-8.7,8.39-4.06,2.86-8.41,5.68-10.89,9.92-.37.63-.68,1.23-1,1.81-5.4,9.63,1.09,13.79,9,16.1a24.29,24.29,0,0,0-.36,4.17c0,14,11.71,25.43,26.14,25.43a25.92,25.92,0,0,0,3.41-.22l.84.55h.19c2.68,1.93,5,4.35,6,7.23l-8.38,6.4s.34.88.84,2.28L805,261.66c-12.48.58-32.68-38.73-32.68-38.73s-3-22.54-13.67-26.59c-3.22-1.22-4.5,1.33-4.72,5.49-4.77,5,3.24,33.08,3.24,33.08L782.7,280c2.38,4.62,3,7.51,14.26,9.25,9.27,1.42,38.15-8.84,48.2-12.56l.47,4a23.33,23.33,0,0,0-1.52,9.57c0,7.37,3.29,18.09,19.35,26.63,0,0,16.58,21.43,14.74,41.66,0,0,.8.84,2.08,1.94-.18,5.7-1,12.73-3.87,15.47a1.51,1.51,0,0,0-.45,1.42,1.45,1.45,0,0,0,.7,1.55l-20.93,36.65c-.78,1-1.57,2-2.38,3a107.47,107.47,0,0,1-12.89,13.75c-3.49,3.11-7.12,6.51-7.84,7.78-1.11,2-3.9,8.45-2.72,13.78a72,72,0,0,1,1.86,19.74L829.05,521a123.71,123.71,0,0,1-3.75,15.65h-.41s-10.1,12.14-26.14,15-15.45,11-10.7,12.14,62.39-1.16,62.39-1.16,2.18-4.25,1.58-8.13c18.4-1.77,43.89-4.77,43.89-4.77s3.49-8.39-1.58-12a11.88,11.88,0,0,1-4.06-5.77c-.3-1.28-.63-2.74-.95-4.27-.08-.75-.08-1.21-.08-1.21h-.17c-.89-4.47-1.6-9.26-1.19-11.77,1.49-6.65,5.35-45.09-4.16-56.07-4.32-5-3.73-10.68-1.81-15.42,11.41-7.47,27.37-23.54,36.6-33.26.52.43,1,.86,1.45,1.29l.3.29s31.41-15.55,31.54-43A42.26,42.26,0,0,0,946.82,348.32ZM846.21,542a15.83,15.83,0,0,1,.11-3l-1-.11c.58-4.36,2-9.24,5.18-12.61a107.12,107.12,0,0,0,11.44-31.68l5.77,21.83s.58,4.52.74,9.3h-.1S860.3,537.18,846.21,542Z" transform="translate(0 0)"/><path class="cls-13" d="M872.29,259.22s-14.11,5.08-22,13.55c0,0-38.39,15.24-49.12,13.55s-11.29-4.52-13.55-9l-24.28-44s-10.16-36.7,0-32.75,13,26,13,26,19.2,38.39,31,37.83l32.15-15.32s7.34-10.73,10.73-10.16S872.29,259.22,872.29,259.22Z" transform="translate(0 0)"/><g class="cls-14"><path d="M872.29,259.22s-14.11,5.08-22,13.55c0,0-38.39,15.24-49.12,13.55s-11.29-4.52-13.55-9l-24.28-44s-10.16-36.7,0-32.75,13,26,13,26,19.2,38.39,31,37.83l32.15-15.32s7.34-10.73,10.73-10.16S872.29,259.22,872.29,259.22Z" transform="translate(0 0)"/></g><path class="cls-15" d="M849.11,238.41l-11.26,8.84s5.63,14.73,4.22,19.89,22.52-8.1,22.52-8.1l-9.85-22.1Z" transform="translate(0 0)"/><g class="cls-14"><path d="M849.11,238.41l-11.26,8.84s5.63,14.73,4.22,19.89,22.52-8.1,22.52-8.1l-9.85-22.1Z" transform="translate(0 0)"/></g><path class="cls-13" d="M829.67,228.57s25.12,8.19,13.55,22.58l36.13-17.5s-15.24,1.13-24.84-22Z" transform="translate(0 0)"/><path class="cls-13" d="M877.09,375.93,846,431.82l20.9,81.26s2.26,18.07-1.13,19.76h23.71s-4.57-16-3.39-21.45c1.41-6.49,5.08-44-4-54.76s4.52-24.84,4.52-24.84l27.1-42.91Z" transform="translate(0 0)"/><g class="cls-14"><path d="M877.09,375.93,846,431.82l20.9,81.26s2.26,18.07-1.13,19.76h23.71s-4.23-16.09-3.39-21.45,5.08-44-4-54.76,4.52-24.84,4.52-24.84l27.1-42.91Z" transform="translate(0 0)"/></g><path class="cls-16" d="M867.54,522.2s-8.6,12.67-23.6,16.69-13.78,11.86-9.19,12.62,59-5.83,59-5.83,3.31-8.19-1.5-11.77-4.84-11-4.84-11Z" transform="translate(0 0)"/><g class="cls-17"><path d="M878.79,353.34s1.34,18.36-3.55,23.18a1.49,1.49,0,0,0,.3,2.38l14.54,7.75,13-24.84Z" transform="translate(0 0)"/></g><path class="cls-18" d="M878.79,352.78s1.34,18.36-3.55,23.18a1.49,1.49,0,0,0,.3,2.38l14.54,7.75,13-24.84Z" transform="translate(0 0)"/><g class="cls-17"><path d="M878.79,353.78s1.34,18.36-3.55,23.18a1.49,1.49,0,0,0,.3,2.38l14.54,7.75,13-24.84Z" transform="translate(0 0)"/></g><path class="cls-13" d="M879.35,388.91s-8.39,5.6-26,28.65A103.25,103.25,0,0,1,841.1,431c-3.31,3-6.76,6.36-7.45,7.6-1.06,1.91-3.71,8.26-2.58,13.46a72.24,72.24,0,0,1,1.77,19.28l-2.57,46.31s-3.39,20.89-7.9,23.15l23.15,4s-1.69-14.68,5.08-22c0,0,15.81-27.1,11.86-57.59,0,0-1.69-13.55,13.55-20.89s46.3-42.91,46.3-42.91Z" transform="translate(0 0)"/><path class="cls-16" d="M826.28,532.88s-9.6,11.86-24.84,14.68-14.68,10.73-10.16,11.86,59.28-1.13,59.28-1.13,4-7.9-.56-11.86-3.39-11.29-3.39-11.29Z" transform="translate(0 0)"/><g class="cls-17"><path d="M893.47,359s-6.89,23.14-15.62,29.88a1.12,1.12,0,0,0-.23,1.57,1.16,1.16,0,0,0,.52.38c7.22,2.63,30.42,11.49,38.48,19.55l.28.28s48.27-24.56,22.3-66.34Z" transform="translate(0 0)"/></g><path class="cls-18" d="M893.47,358.43s-6.89,23.14-15.62,29.88a1.12,1.12,0,0,0-.23,1.57,1.16,1.16,0,0,0,.52.38c7.22,2.63,30.42,11.49,38.48,19.55l.28.28s48.27-24.56,22.3-66.34Z" transform="translate(0 0)"/><g class="cls-17"><path d="M853.83,243.69a44.21,44.21,0,0,1-11.64,5.56l3.88,34.53s-9.07,20.3,16.87,34.48c0,0,15.75,20.93,14,40.69,0,0,8.45,9.06,14.1,6.81s.56,1.13,1.69.57,3.38,4.53,20.89.05,30-16.29,29.41-20.25S920,316.71,914.39,285.64s-38.82-53.17-38.82-53.17-1.1.61-3,1.42A131.93,131.93,0,0,0,853.83,243.69Z" transform="translate(0 0)"/></g><g class="cls-17"><path d="M877.41,389.08a1.11,1.11,0,0,0,.73,1.13c6.22,2.27,24.3,9.16,34.34,16.18C903.79,399.37,885.3,392.08,877.41,389.08Z" transform="translate(0 0)"/><path d="M939.2,343.75l-1,.34c22.19,38.79-19.6,62.22-23.25,64.17a18.64,18.64,0,0,1,1.72,1.55l.28.28S965.17,385.53,939.2,343.75Z" transform="translate(0 0)"/></g><path class="cls-15" d="M913.79,365.2c-17.5,4.52-19.76-.56-20.89,0s4-2.82-1.69-.56-14.11-6.78-14.11-6.78c.08-1,.12-1.93.12-2.9.06-18.88-14.28-37.75-14.28-37.75-26-14.11-16.94-34.44-16.94-34.44l-1.06-9.26L842,248.25a44,44,0,0,0,11.62-5.58,132.87,132.87,0,0,1,18.71-9.84c1.91-.82,3-1.43,3-1.43s33.31,22,39,53.07,28.23,56.46,28.79,60.41S931.29,360.68,913.79,365.2Z" transform="translate(0 0)"/><g class="cls-17"><path d="M855.07,212.2l-24.84,16.94a42.38,42.38,0,0,1,9.69,4.83c8.46-1.19,13.64-7.25,17.13-14.71C855.69,217.08,856.29,215.13,855.07,212.2Z" transform="translate(0 0)"/></g><circle class="cls-13" cx="835.88" cy="208.82" r="24.84"/><g class="cls-17"><path d="M917.74,362.38c-17.5,4.52-19.76-.56-20.89,0s4-2.82-1.69-.56S881.05,355,881.05,355c.08-1,.12-1.93.12-2.9.07-18.85-14.24-37.75-14.24-37.75C840.93,300.28,850,280,850,280l-1-9.27-2.75-23.91a27.17,27.17,0,0,1-4.11,1.47l2.86,25.27,1.07,9.26S837,303.1,863,317.21c0,0,14.31,18.9,14.24,37.75a23.2,23.2,0,0,1-.12,2.9s8.47,9,14.11,6.78.56,1.13,1.69.56,3.39,4.52,20.89,0a60.59,60.59,0,0,0,21.87-10.71A61.35,61.35,0,0,1,917.74,362.38Z" transform="translate(0 0)"/></g><path class="cls-13" d="M870.88,264.14s-14.11,5.08-22,13.55c0,0-38.39,15.24-49.12,13.55s-11.29-4.52-13.55-9l-24.28-44s-10.16-36.7,0-32.75,13,26,13,26,19.2,38.39,31.05,37.83L838.14,254s7.34-10.73,10.73-10.16S870.88,264.14,870.88,264.14Z" transform="translate(0 0)"/><g class="cls-17"><path d="M851.82,243.47s-11.71-1.07-15.1,13.61,26,23.71,26,23.71l15.81-22Z" transform="translate(0 0)"/></g><path class="cls-15" d="M852.39,243.47s-11.71-1.07-15.1,13.61,26,23.71,26,23.71l15.81-22Z" transform="translate(0 0)"/><g class="cls-17"><path d="M847.61,246.08a30.51,30.51,0,0,1-5.54,2.14l.1.85A58.56,58.56,0,0,0,847.61,246.08Z" transform="translate(0 0)"/><path d="M943.15,344.88c-.56-4-23.15-29.36-28.79-60.41s-39-53.07-39-53.07-1.1.61-3,1.43a136.25,136.25,0,0,0-14.78,7.45q4.75-2.5,9.7-4.62c1.91-.82,3-1.43,3-1.43s33.31,22,39,53.07,28.23,56.46,28.79,60.41c.36,2.49-4.45,8.12-12.44,13.08C936.6,355.34,943.58,347.86,943.15,344.88Z" transform="translate(0 0)"/></g><path class="cls-19" d="M859.1,243.7s14.6,7.23,17.35,21.13" transform="translate(0 0)"/><g class="cls-17"><path d="M823.4,207.42c2.33.52,4.93,1.25,6.08,3.34.83,1.52.68,3.43,1.49,5,2.08,3.92,8.18,2.57,12,4.87,7,4.22,2.43,17.38,9.4,21.62,1.31.8,2.86,1.12,4.21,1.85,5.89,3.22,5.06,11.74,4,18.37s.2,15.7,6.85,16.64c3.66.51,7.77-1.91,10.85.12,1.61,1.06,2.34,3,3.69,4.41a6.71,6.71,0,0,0,7.22,1.49c2.26-.94,3.89-3.09,6.24-3.78,3.78-1.11,8,1.95,11.64.54s4.47-6.67,3.53-10.64-2.86-8-1.86-12c.83-3.3,3.53-5.82,4.71-9,3.46-9.39-7.27-19.09-5.29-28.9.86-4.25,4.06-8,4-12.29-.1-5-4.53-8.79-9.14-10.63s-9.67-2.36-14.18-4.41c-9.89-4.5-15.3-15.38-24.34-21.42a34.22,34.22,0,0,0-13.39-5.14,43.88,43.88,0,0,0-34.94,9.5c-.89.72-1.8,1.4-2.72,2.06-3.86,2.79-8,5.54-10.35,9.68C794.52,203.64,814.23,205.35,823.4,207.42Z" transform="translate(0 0)"/></g><path class="cls-20" d="M824.1,206c2.33.52,4.93,1.25,6.08,3.34.83,1.52.68,3.43,1.49,5,2.08,3.92,8.18,2.57,12,4.87,7,4.22,2.43,17.38,9.4,21.62,1.31.8,2.86,1.12,4.21,1.85,5.89,3.22,5.06,11.74,4,18.37s.2,15.7,6.85,16.64c3.66.51,7.77-1.91,10.85.12,1.61,1.06,2.34,3,3.69,4.41a6.71,6.71,0,0,0,7.22,1.49c2.26-.94,3.89-3.09,6.24-3.78,3.78-1.11,8,1.95,11.64.54s4.47-6.67,3.53-10.64-2.86-8-1.86-12c.83-3.3,3.53-5.82,4.71-9,3.46-9.39-7.27-19.09-5.29-28.9.86-4.25,4.06-8,4-12.29-.1-5-4.53-8.79-9.14-10.63s-9.67-2.36-14.18-4.41c-9.89-4.5-15.3-15.38-24.34-21.42a33.39,33.39,0,0,0-12.1-4.9,43.9,43.9,0,0,0-36.26,9.28c-.88.71-1.79,1.39-2.69,2-3.86,2.79-8,5.54-10.35,9.68C795.22,202.23,814.94,204,824.1,206Z" transform="translate(0 0)"/><path class="cls-2" d="M622.84,362.18h-174V329.39C491.35,309.52,556.76,298.36,622.84,362.18Z" transform="translate(0 0)"/><g class="cls-17"><path d="M757.84,357.49v4.69h-217v-1S647.62,257.21,757.84,357.49Z" transform="translate(0 0)"/></g><path class="cls-2" d="M759.84,357.49v4.69h-217v-1S649.62,257.21,759.84,357.49Z" transform="translate(0 0)"/><circle class="cls-2" cx="484.84" cy="215.18" r="16"/><path class="cls-21" d="M621.06,203.08c-1.83,0-3.87,0-5.26.11a6.34,6.34,0,0,0-1.82.37l-9.41,3.38c7.6.19,15.53.13,23.32.07l43.68-.34c4.46,0,9.14-.08,12.85-.34,2.49-.18,4.32-.44,6.62-.64,8.27-.74,20.32-.6,31.09-.56s23.77-.24,27.56-1.32H726.57c-2.49,0-5.11,0-7.31-.12-2.57-.15-4.14-.43-6.4-.63-3.74-.32-8.9-.36-13.7-.38C672.81,202.57,646.79,203.19,621.06,203.08Z" transform="translate(0 0)"/><path class="cls-21" d="M646.94,222.46H645.8a1.35,1.35,0,0,0-.4.08l-2,.73h5.05l9.46-.07c1,0,2,0,2.78-.07.54,0,.94-.1,1.43-.14,1.79-.16,4.4-.13,6.74-.12a36.5,36.5,0,0,0,6-.29h-6.58a13.63,13.63,0,0,1-1.39-.14c-.81-.07-1.93-.08-3-.08C658.19,222.36,652.55,222.49,646.94,222.46Z" transform="translate(0 0)"/><path class="cls-21" d="M579.94,250.46H578.8a1.35,1.35,0,0,0-.4.08l-2,.73h5.05l9.46-.07c1,0,2,0,2.78-.07.54,0,.94-.1,1.43-.14,1.79-.16,4.4-.13,6.74-.12a36.5,36.5,0,0,0,6-.29h-6.58a13.63,13.63,0,0,1-1.39-.14c-.81-.07-1.93-.08-3-.08C591.19,250.36,585.55,250.49,579.94,250.46Z" transform="translate(0 0)"/><path class="cls-2" d="M542.35,353.31h-7.52s-2.35-82.24,7.52-107.62h1.88S537.65,338.74,542.35,353.31Z" transform="translate(0 0)"/><path class="cls-2" d="M537.18,241.46s-6.11,16.92-3.29,24.44c0,0,4.23-15.51,9.16-17.86s10.1,17.86,10.1,17.86,2.82-12.69-2.35-23c0,0,10.34,5.64,15.51,16.45,0,0,.94-7-11.28-21.62,0,0,10.81,2.82,17.86,9.4,0,0,2.35-5.17-12.22-13.63,0,0,1.88-6.11,13.16-3.29,0,0,0-8-17.86-6.58,0,0,0-5.17,11.75-4.23,0,0,0-6.58-13.63-4.23,0,0,2.82-4.23,4.7-5.17a9.42,9.42,0,0,0-6.58,1.88s.47-8.46-6.58-11.75l-.94,11.75s-7.9-9.31-6.11-7.52c.47.47,1.88,6.11,1.41,8.93,0,0-8-6.58-17.86.47,0,0,12.22.94,14.1,5.17,0,0-10.34-1.88-12.69-.47,0,0,8,2.82,7.52,4.7,0,0-14.1,0-16,5.17,0,0,14.57,1.88,15.51,3.29,0,0-16.92,12.22-17.86,15.51,0,0,17.39-10.34,20.21-10.34s-12.69,15-11.75,18.8C521.21,255.56,533.94,240.52,537.18,241.46Z" transform="translate(0 0)"/><path class="cls-2" d="M635.1,350.23h5.74s1.8-62.83-5.74-82.22h-1.44S638.7,339.08,635.1,350.23Z" transform="translate(0 0)"/><path class="cls-2" d="M639.05,264.78s4.67,12.93,2.51,18.67c0,0-3.23-11.85-7-13.64s-7.72,13.64-7.72,13.64-2.15-9.69,1.8-17.59a31.25,31.25,0,0,0-11.85,12.57s-.72-5.39,8.62-16.52c0,0-8.26,2.15-13.64,7.18,0,0-1.8-3.95,9.34-10.41,0,0-1.44-4.67-10.05-2.51,0,0,0-6.1,13.64-5,0,0,0-3.95-9-3.23,0,0,0-5,10.41-3.23,0,0-2.15-3.23-3.59-4a7.23,7.23,0,0,1,5,1.44s-.36-6.46,5-9l.72,9s6-7.11,4.67-5.74a15.73,15.73,0,0,0-1.08,6.82s6.1-5,13.64.36c0,0-9.34.72-10.77,4,0,0,7.9-1.44,9.69-.36,0,0-6.1,2.15-5.74,3.59,0,0,10.77,0,12.21,4,0,0-11.13,1.44-11.85,2.51,0,0,12.93,9.34,13.64,11.85,0,0-13.28-7.9-15.44-7.9s9.69,11.49,9,14.36C651.26,275.55,641.57,264.08,639.05,264.78Z" transform="translate(0 0)"/><path class="cls-2" d="M703.83,338h3.56S708.5,299,703.83,287h-.89S706.05,331.08,703.83,338Z" transform="translate(0 0)"/><path class="cls-2" d="M706.28,285s2.89,8,1.56,11.56c0,0-2-7.34-4.34-8.45s-4.78,8.45-4.78,8.45-1.33-6,1.11-10.9a19.36,19.36,0,0,0-7.34,7.78s-.44-3.34,5.34-10.23a22.54,22.54,0,0,0-8.45,4.45s-1.11-2.45,5.78-6.45c0,0-.89-2.89-6.23-1.56,0,0,0-3.78,8.45-3.11,0,0,0-2.45-5.56-2,0,0,0-3.11,6.45-2a9.8,9.8,0,0,0-2.22-2.45,4.51,4.51,0,0,1,3.11.89s-.22-4,3.11-5.56l.44,5.56s3.74-4.4,2.89-3.56a9.81,9.81,0,0,0-.67,4.22,6.93,6.93,0,0,1,8.45.22s-5.78.44-6.67,2.45c0,0,4.89-.89,6-.22,0,0-3.78,1.33-3.56,2.22,0,0,6.67,0,7.56,2.45,0,0-6.89.89-7.34,1.56,0,0,8,5.78,8.45,7.34,0,0-8.23-4.89-9.56-4.89s6,7.12,5.56,8.89C713.84,291.7,707.83,284.58,706.28,285Z" transform="translate(0 0)"/><path class="cls-22" d="M573.83,294h0l-.75-4a2.18,2.18,0,0,0-.68-1.57l-3.47-1.7h0a4,4,0,0,1-.62-1l.06-.09a2.05,2.05,0,0,0,.4-.81.89.89,0,0,0,0-.23h.05a1.29,1.29,0,0,0,1.43-1v-.09a1.3,1.3,0,0,1-1.17,1,3.55,3.55,0,0,0,1.57-2.94v-.15a1.29,1.29,0,0,0,.59-.86v-.09a1.3,1.3,0,0,1-.61.8,3.45,3.45,0,0,0-.22-1h.09a1.29,1.29,0,0,0,1.29-1.29v-.09a1.3,1.3,0,0,1-1.28,1.2h-.16V280a2.12,2.12,0,0,0,1.48-1.71v-.09a1.33,1.33,0,0,1-.26.69,1.29,1.29,0,0,0-2.54-.38l-.23-.13a1.29,1.29,0,0,1,1.16-.94h-.09a1.31,1.31,0,0,0-1.23.87,3.54,3.54,0,0,0-4.46,1.28c-.27.2-.62.49-.61.74a2.24,2.24,0,0,0-.31.38,4.89,4.89,0,0,0-.4,2.67,2.83,2.83,0,0,1-.92,2.45,1.18,1.18,0,0,0,.94,0,3.63,3.63,0,0,0,.83-.49,1.79,1.79,0,0,0,.59-.57v-.05a2.69,2.69,0,0,0,.53.28c.07.6.09,1.29-.18,1.52h0l.05-.11a3.24,3.24,0,0,1-2.25.64,2.83,2.83,0,0,0-2.33,1.5L559,293.08h0v.08h0v.08h0a.33.33,0,0,0,.26.25l.34.09a7.18,7.18,0,0,1-.23,2.31,19.46,19.46,0,0,0-.39,3.4c.08.57.22,3.54.29,4.95a14.49,14.49,0,0,0-.29,1.46l-1.61,9.66s-1.2,7.73-1.14,10.07l-.21,1.35s-3.27,4.1-2.31,4.68,2.44.83,3.85-1.35a3.52,3.52,0,0,1,.9-1.35,1.31,1.31,0,0,0,.45-1.13l-.1-1,.17.06h.1s1.61-5.29,1.43-9c0,0,3-10.62,5.25-12.29v-.07l.21-.1.48,10.29L566,326.86l-.11.68s-3.27,4.1-2.31,4.68,2.44.83,3.85-1.35a3.52,3.52,0,0,1,.9-1.35,1.31,1.31,0,0,0,.45-1.13l-.15-1.5c.56-1.91,2-7.41,1.41-10.6l1-6.78c1-1.13.87-4,.87-4,.79-1.65,1-8.12,1-8.12l.2-3.2h.61v-.06l.07-.09h.06V294h0Zm-2.8,6.5q-.13-.33-.3-.66h-.08v-.24a2.19,2.19,0,0,0,.12-.33,1.22,1.22,0,0,0,.19-.69A6.5,6.5,0,0,1,571,300.45Zm-.3-2.74-.2-2.14.06-.17.27,2.72Zm-9.48.29a.76.76,0,0,0-.18.58v.07a2.3,2.3,0,0,0,.09.64l-.31,1.34v-2.56a5.16,5.16,0,0,0,.54-.86,1.43,1.43,0,0,1-.14.79Z" transform="translate(0 0)"/><path class="cls-23" d="M563.27,281.48a4.72,4.72,0,0,0-.39,2.57,2.73,2.73,0,0,1-.89,2.36,1.2,1.2,0,0,0,.91,0,3.37,3.37,0,0,0,.8-.47,1.87,1.87,0,0,0,.57-.55,2.14,2.14,0,0,0,.13-1.09,11.58,11.58,0,0,1,.17-1.95c.06-.4.44-1.49,0-1.7S563.46,281.18,563.27,281.48Z" transform="translate(0 0)"/><path class="cls-24" d="M556.66,324l-.31,2s-3.15,4-2.22,4.51,2.35.8,3.71-1.3a3.44,3.44,0,0,1,.86-1.3h0a1.28,1.28,0,0,0,.43-1.09l-.31-3.05Z" transform="translate(0 0)"/><path class="cls-24" d="M566.14,324.78l-.31,2s-3.15,4-2.22,4.51,2.35.8,3.71-1.3a3.44,3.44,0,0,1,.86-1.3h0a1.28,1.28,0,0,0,.43-1.09l-.31-3.05Z" transform="translate(0 0)"/><path class="cls-25" d="M561.23,300.87s-1.48,1.07-2,4.79L557.68,315s-1.31,8.44-1.07,10.06l2.62.9s1.55-5.1,1.38-8.65c0,0,3.15-11.22,5.36-12l.47,9.91-.5,11.15,2.24.45s2.27-7.1,1.55-10.86l1.17-8a12,12,0,0,0-.52-8Z" transform="translate(0 0)"/><g class="cls-17"><path d="M565.74,305.43v-.17c-2.21.79-5.36,12-5.36,12a31.48,31.48,0,0,1-1.35,8.56l.28.1s1.55-5.1,1.38-8.65C560.68,317.28,563.56,307.08,565.74,305.43Z" transform="translate(0 0)"/><path d="M570.47,300h-.3a11.82,11.82,0,0,1,.5,7.93l-1.17,8c.69,3.56-1.32,10.11-1.53,10.8l.29.06s2.27-7.1,1.55-10.86l1.17-8S572.33,303.66,570.47,300Z" transform="translate(0 0)"/></g><path class="cls-26" d="M559.22,293.58a.33.33,0,0,0,.26.33,5.24,5.24,0,0,1,2,1c1.1.86-1.17-1.72-1.17-1.72l-.76.17-.31.28Z" transform="translate(0 0)"/><path class="cls-27" d="M559.22,293.58a.33.33,0,0,0,.26.33,5.24,5.24,0,0,1,2,1c1.1.86-1.17-1.72-1.17-1.72l-.76.17-.31.28Z" transform="translate(0 0)"/><path class="cls-26" d="M570,295.86a7,7,0,0,1,3.12-1.23.29.29,0,0,0,.29-.29h0S570.83,293.31,570,295.86Z" transform="translate(0 0)"/><path class="cls-27" d="M573.45,294.33s-2.62-1-3.41,1.52c0,0,1.93-1.48,3.27-1.24" transform="translate(0 0)"/><circle class="cls-23" cx="567" cy="282.28" r="3.41"/><path class="cls-13" d="M564.65,284.67s.48,2,0,2.41-1.45,1.17-.72,1.76,3.34,1.59,4.21,1.1,1.86-.34,1.62-1.34-2.14-.79-2.17-5.76Z" transform="translate(0 0)"/><path class="cls-27" d="M559.82,293a12.6,12.6,0,0,1-.21,3.24,19,19,0,0,0-.38,3.27c.1.72.31,5.48.31,5.48s-.38,4.17,1.65,3.79-.31-4.76-.31-4.76l.1-5.69a5.29,5.29,0,0,0,1-2.55C562.13,294.39,559.82,293,559.82,293Z" transform="translate(0 0)"/><path class="cls-13" d="M559.79,293a12.6,12.6,0,0,1-.21,3.24,19,19,0,0,0-.38,3.27c.1.72.31,5.48.31,5.48s-.38,4.17,1.65,3.79-.31-4.76-.31-4.76l.1-5.69a5.29,5.29,0,0,0,1-2.55C562.09,294.39,559.79,293,559.79,293Z" transform="translate(0 0)"/><path class="cls-27" d="M572.78,293.29l-.28,4.45s-.17,6.24-.93,7.82c0,0,.21,4.38-1.83,4.27s.34-4.79.34-4.79,1.09-4.87.53-6.41l-.53-5.34Z" transform="translate(0 0)"/><path class="cls-13" d="M572.81,293.29l-.28,4.45s-.17,6.24-.93,7.82c0,0,.21,4.38-1.83,4.27s.34-4.79.34-4.79,1.09-4.87.53-6.41l-.53-5.34Z" transform="translate(0 0)"/><path class="cls-27" d="M566.2,289s1.65.76,2.55-1.5l3.35,1.64a2.1,2.1,0,0,1,.65,1.52l.72,3.86s-2.45-.83-3.21,1.45l.21,2.17h0a2.32,2.32,0,0,1-.11,1.62.37.37,0,0,0,0,.29,1.06,1.06,0,0,1-1,1.38,20.18,20.18,0,0,0-2.69.21c-.72.21-2.9-.41-3.62,0s-2.24-.31-2.24-.31l.41-1.76s-.28-.86.07-1.17.14-3-.17-3.76c0,0-1.24-1.17-2-1l1-4.45a2.7,2.7,0,0,1,2.24-1.45,3.12,3.12,0,0,0,2.17-.62S563.78,288.74,566.2,289Z" transform="translate(0 0)"/><path class="cls-27" d="M566.37,288.9c.45.12,1.65.25,2.37-1.56l3.35,1.64a2.1,2.1,0,0,1,.65,1.52l.72,3.86s-2.45-.83-3.21,1.45l.21,2.17.14.43a1.23,1.23,0,0,1-.17,1.1.39.39,0,0,0-.07.4,1.06,1.06,0,0,1-1,1.38,20.18,20.18,0,0,0-2.69.21c-.72.21-2.9-.41-3.62,0s-2.24-.31-2.24-.31l.41-1.76s-.28-.86.07-1.17.14-3-.17-3.76c0,0-1.24-1.17-2-1l1-4.45a2.7,2.7,0,0,1,2.24-1.45,3.12,3.12,0,0,0,2.17-.62s-.81,1.48,1.32,1.8Z" transform="translate(0 0)"/><path class="cls-26" d="M566.37,289c.45.12,1.65.25,2.37-1.56l3.35,1.64a2.1,2.1,0,0,1,.65,1.52l.72,3.86s-2.45-.83-3.21,1.45l.21,2.17h0a2.32,2.32,0,0,1-.11,1.62.37.37,0,0,0,0,.29,1.06,1.06,0,0,1-1,1.38,20.18,20.18,0,0,0-2.69.21c-.72.21-2.9-.41-3.62,0s-2.24-.31-2.24-.31l.41-1.76s-.28-.86.07-1.17.14-3-.17-3.76c0,0-1.24-1.17-2-1l1-4.45a2.7,2.7,0,0,1,2.24-1.45,3.12,3.12,0,0,0,2.17-.62s-.81,1.48,1.32,1.8Z" transform="translate(0 0)"/><path class="cls-27" d="M567.64,283l-2.93,1.83c.07.33.13.66.17,1a2.88,2.88,0,0,0,1,.2,3,3,0,0,0,1.9-.86A11.3,11.3,0,0,1,567.64,283Z" transform="translate(0 0)"/><circle class="cls-13" cx="565.87" cy="283" r="2.83"/><circle class="cls-23" cx="570.04" cy="279.59" r="1.24"/><path class="cls-23" d="M570.28,280.9a1.24,1.24,0,0,1-1.24-1.15v.09a1.24,1.24,0,0,0,2.48,0h0v-.09A1.24,1.24,0,0,1,570.28,280.9Z" transform="translate(0 0)"/><path class="cls-23" d="M569.57,282.08a1.24,1.24,0,0,1-1-1.36v.08a1.24,1.24,0,1,0,2.44.45h0v-.09A1.24,1.24,0,0,1,569.57,282.08Z" transform="translate(0 0)"/><path class="cls-23" d="M568.61,285.08a1.24,1.24,0,0,1-1-1.36v.08a1.24,1.24,0,1,0,2.44.45v-.09A1.24,1.24,0,0,1,568.61,285.08Z" transform="translate(0 0)"/><path class="cls-23" d="M570.28,280.24a1.25,1.25,0,0,1-1.24-1.16v.09a1.24,1.24,0,0,0,2.48,0h0v-.09A1.25,1.25,0,0,1,570.28,280.24Z" transform="translate(0 0)"/><path class="cls-23" d="M568.55,279.57a1.24,1.24,0,0,1,1.17-1.23h-.09a1.24,1.24,0,0,0,0,2.48h.09A1.24,1.24,0,0,1,568.55,279.57Z" transform="translate(0 0)"/><path class="cls-27" d="M569.8,291.27a4.48,4.48,0,0,1,0,1.86s-.17,1.62.1,1.9" transform="translate(0 0)"/><path class="cls-27" d="M561.42,291.65a4.48,4.48,0,0,1,0,1.86s-.17,1.62.1,1.9" transform="translate(0 0)"/><path class="cls-27" d="M561.35,298.3a1.19,1.19,0,0,0,.83,0,1.7,1.7,0,0,1,1,0" transform="translate(0 0)"/><path class="cls-27" d="M561.77,295.86a7.15,7.15,0,0,0,2.86-.45s3.52.86,4.52.24" transform="translate(0 0)"/><path class="cls-13" d="M559.88,310.72h.83a.67.67,0,0,1,.67.67h0a.67.67,0,0,1-.67.67h-.83a.67.67,0,0,1-.67-.67h0A.67.67,0,0,1,559.88,310.72Z" transform="translate(0 0)"/><path class="cls-28" d="M559.22,311.08l1.16-.05,1,.16H561Z" transform="translate(0 0)"/><path class="cls-28" d="M567,305.47h1.16l1,.1h-.35Z" transform="translate(0 0)"/><path class="cls-28" d="M567,305.71h1.16l1,.1h-.35Z" transform="translate(0 0)"/><path class="cls-28" d="M567,306h1.16l1,.1h-.35Z" transform="translate(0 0)"/><path class="cls-28" d="M567,306.2h1.16l1,.1h-.35Z" transform="translate(0 0)"/><path class="cls-28" d="M559.22,312h1.16l1,.12H561Z" transform="translate(0 0)"/><path class="cls-28" d="M559.22,311.89h1.16l1,.12H561Z" transform="translate(0 0)"/><path class="cls-28" d="M559.22,311.77h1.16l1,.12H561Z" transform="translate(0 0)"/><path class="cls-28" d="M559.22,311.65h1.16l1,.12H561Z" transform="translate(0 0)"/><path class="cls-28" d="M559.22,310.9l1.16,0,1,.16H561Z" transform="translate(0 0)"/><path class="cls-28" d="M559.22,310.69l1.16-.05,1,.16H561Z" transform="translate(0 0)"/><path class="cls-27" d="M566.35,281.19a6.89,6.89,0,0,0,.4,3.12,3.69,3.69,0,0,1-.15,3,1,1,0,0,0,.88-.22,3.53,3.53,0,0,0,.64-.75,1.91,1.91,0,0,0,.39-.78,3.12,3.12,0,0,0-.2-1.32,18.34,18.34,0,0,1-.42-2.33c-.06-.48,0-1.86-.54-2S566.45,280.79,566.35,281.19Z" transform="translate(0 0)"/><path class="cls-23" d="M566.42,281.16a6.89,6.89,0,0,0,.4,3.12,3.69,3.69,0,0,1-.15,3,1,1,0,0,0,.88-.22,3.53,3.53,0,0,0,.64-.75,1.91,1.91,0,0,0,.39-.78,3.12,3.12,0,0,0-.2-1.32,18.34,18.34,0,0,1-.42-2.33c-.06-.48,0-1.86-.54-2S566.52,280.75,566.42,281.16Z" transform="translate(0 0)"/><path class="cls-27" d="M565.2,281.9c.24.25.29.62.49.9a1.76,1.76,0,0,0,1.4.56.75.75,0,0,1,.41.09c.22.14.23.46.37.68a.8.8,0,0,0,1.13,0l0,0a1.9,1.9,0,0,0,.45-1.23,7.42,7.42,0,0,0,0-1.49,2.27,2.27,0,0,0-.63-1.52,2.69,2.69,0,0,0-1.11-.48,3.32,3.32,0,0,0-1.71-.13,2.85,2.85,0,0,0-.78.39l-1,.67c-.37.26-1.07.78-.39,1.06C564.3,281.6,564.84,281.51,565.2,281.9Z" transform="translate(0 0)"/><path class="cls-23" d="M565.27,281.86c.24.25.29.62.49.9a1.76,1.76,0,0,0,1.4.56.75.75,0,0,1,.41.09c.22.14.23.46.37.68a.8.8,0,0,0,1.13,0l0,0a1.92,1.92,0,0,0,.45-1.23,7.42,7.42,0,0,0,0-1.49,2.27,2.27,0,0,0-.63-1.52,2.69,2.69,0,0,0-1.11-.48,3.32,3.32,0,0,0-1.71-.13,2.85,2.85,0,0,0-.78.39l-1,.67c-.37.26-1.07.78-.39,1.06C564.37,281.56,564.94,281.48,565.27,281.86Z" transform="translate(0 0)"/><path class="cls-28" d="M567.11,305.47h1.16l1,.1h-.33Z" transform="translate(0 0)"/><path class="cls-28" d="M567.11,305.71h1.16l1,.1h-.33Z" transform="translate(0 0)"/><path class="cls-28" d="M567.11,306h1.16l1,.1h-.33Z" transform="translate(0 0)"/><path class="cls-28" d="M567.11,306.2h1.16l1,.1h-.33Z" transform="translate(0 0)"/><path class="cls-28" d="M566.61,319.47h1.16l1,.1h-.35Z" transform="translate(0 0)"/><path class="cls-28" d="M566.61,319.72h1.16l1,.1h-.35Z" transform="translate(0 0)"/><path class="cls-28" d="M566.61,320h1.16l1,.1h-.35Z" transform="translate(0 0)"/><path class="cls-28" d="M566.61,320.2h1.16l1,.1h-.35Z" transform="translate(0 0)"/></svg>